<?xml version="1.0" encoding="UTF-8"?>
<svg id="Layer_1" data-name="Layer 1" xmlns="http://www.w3.org/2000/svg" version="1.1" viewBox="0 0 441.8 121.3">
  <defs>
    <style>
      .cls-1 {
        font-family: Montserrat-Medium, Montserrat;
        font-size: 18.6px;
        font-weight: 500;
      }

      .cls-1, .cls-2 {
        fill: #fff;
      }

      .cls-2, .cls-3 {
        stroke-width: 0px;
      }

      .cls-3 {
        fill: #fed419;
      }
    </style>
  </defs>
  <g>
    <path class="cls-2" d="M147.5,37.6c.6,0,.9.3.9.9v4.3c0,.6-.3.9-.9.9h-13.5c-1.1,0-2,0-2.7.3s-1.3.5-1.7.9-.7,1-.9,1.7c-.2.7-.3,1.6-.3,2.7v15.1c0,.7-.4,1.1-1.1,1.1h-5c-.8,0-1.2-.4-1.2-1.1v-16.4c0-1.8.2-3.4.6-4.7.4-1.3,1.1-2.4,2-3.2.9-.8,2.2-1.4,3.7-1.8,1.5-.4,3.5-.6,5.8-.6h14.2Z"/>
    <path class="cls-2" d="M175,37.6c2.3,0,4.2.2,5.7.6s2.8,1,3.7,1.8c.9.8,1.6,1.9,2,3.2.4,1.3.6,2.9.6,4.7v13.5c0,.8,0,1.5-.2,2-.1.5-.3.9-.6,1.2-.3.3-.7.5-1.1.6-.5.1-1.1.2-1.8.2h-24.1c-1.5,0-2.7-.1-3.7-.4s-1.8-.7-2.4-1.3c-.6-.6-1-1.3-1.3-2.2-.3-.9-.4-2-.4-3.2v-2.4c0-1,.1-2,.4-2.8.3-.8.7-1.5,1.3-2.1.6-.6,1.4-1,2.4-1.3,1-.3,2.2-.4,3.7-.4h20.6v-1c0-.8,0-1.5-.3-2.1-.2-.6-.5-1-.9-1.4-.4-.4-1-.6-1.7-.8-.7-.2-1.6-.3-2.7-.3h-21.2c-.6,0-.9-.3-.9-.9v-4.3c0-.6.3-.9.9-.9h21.9ZM178.4,59.9c.5,0,.9-.1,1.1-.4.2-.3.3-.7.3-1.3v-4.5h-18.6c-1,0-1.8.2-2.2.6-.4.4-.6,1-.6,1.9v1.1c0,.9.2,1.6.6,2s1.2.6,2.2.6h17.1Z"/>
    <path class="cls-2" d="M240.8,65c-.1.3-.4.4-.7.4h-5.7c-.4,0-.8,0-1-.2-.2,0-.4-.3-.6-.5,0-.2,0-.4-.2-.6l-7.2-9.7c-1-1.4-2.2-2.5-3.6-3.2,1.1-.8,2.1-1.9,3.1-3.2l.7-1c.1-.1.2-.3.4-.5l.5-.6,5.2-7.4c.2-.3.4-.5.6-.7.2-.1.5-.2.9-.2h5.7c.4,0,.6.1.7.4.1.3,0,.6-.2.9l-6.5,9c-1,1.4-2.1,2.5-3.2,3.2,1.4.8,2.6,1.9,3.6,3.2l7.2,9.7c.2.3.2.6.1.8Z"/>
    <path class="cls-2" d="M251.4,27.4c.7,0,1.1.4,1.1,1.1v9.1h19c2.3,0,4.2.2,5.7.6s2.8,1,3.7,1.8c.9.8,1.6,1.9,2,3.2.4,1.3.6,2.9.6,4.7v7.3c0,1.8-.2,3.4-.6,4.7-.4,1.3-1.1,2.4-2,3.2-.9.8-2.2,1.4-3.7,1.8s-3.5.6-5.7.6h-14.2c-2.3,0-4.2-.2-5.8-.6-1.5-.4-2.8-1-3.7-1.8-.9-.8-1.6-1.9-2-3.2-.4-1.3-.6-2.9-.6-4.7v-26.7c0-.7.4-1.1,1.2-1.1h5ZM252.6,43.7v10.1c0,1.1,0,2,.3,2.7s.5,1.3.9,1.7c.4.4,1,.7,1.7.9.7.2,1.6.3,2.7.3h12.8c1.1,0,2,0,2.7-.3.7-.2,1.3-.5,1.7-.9.4-.4.7-1,.9-1.7.2-.7.3-1.6.3-2.7v-4.5c0-1,0-1.9-.3-2.7-.2-.7-.5-1.3-.9-1.7s-1-.7-1.7-.9c-.7-.2-1.6-.3-2.7-.3h-18.3Z"/>
    <path class="cls-2" d="M312.1,37.6c2.3,0,4.2.2,5.7.6s2.8,1,3.7,1.8c.9.8,1.6,1.9,2,3.2.4,1.3.6,2.9.6,4.7v13.5c0,.8,0,1.5-.2,2-.1.5-.3.9-.6,1.2-.3.3-.7.5-1.1.6-.5.1-1.1.2-1.8.2h-24.1c-1.5,0-2.7-.1-3.7-.4s-1.8-.7-2.4-1.3c-.6-.6-1-1.3-1.3-2.2-.3-.9-.4-2-.4-3.2v-2.4c0-1,.1-2,.4-2.8.3-.8.7-1.5,1.3-2.1.6-.6,1.4-1,2.4-1.3,1-.3,2.2-.4,3.7-.4h20.6v-1c0-.8,0-1.5-.3-2.1-.2-.6-.5-1-.9-1.4-.4-.4-1-.6-1.7-.8-.7-.2-1.6-.3-2.7-.3h-21.2c-.6,0-.9-.3-.9-.9v-4.3c0-.6.3-.9.9-.9h21.9ZM315.5,59.9c.5,0,.9-.1,1.1-.4.2-.3.3-.7.3-1.3v-4.5h-18.6c-1,0-1.8.2-2.2.6-.4.4-.6,1-.6,1.9v1.1c0,.9.2,1.6.6,2s1.2.6,2.2.6h17.1Z"/>
    <path class="cls-2" d="M356.1,37.6c2.3,0,4.2.2,5.7.6,1.6.4,2.8,1,3.7,1.8.9.8,1.6,1.9,2,3.2.4,1.3.6,2.9.6,4.7v16.4c0,.7-.4,1.1-1.1,1.1h-5c-.7,0-1.1-.4-1.1-1.1v-14.7c0-1,0-1.9-.2-2.7-.1-.7-.4-1.3-.8-1.7-.4-.4-.9-.7-1.6-.9-.7-.2-1.6-.3-2.6-.3h-13.5c-1.1,0-2,0-2.7.3-.7.2-1.3.5-1.7.9-.4.4-.7,1-.9,1.7-.2.7-.3,1.6-.3,2.7v14.7c0,.7-.4,1.1-1.1,1.1h-5c-.8,0-1.2-.4-1.2-1.1v-16.4c0-1.8.2-3.4.6-4.7.4-1.3,1.1-2.4,2-3.2.9-.8,2.2-1.4,3.7-1.8,1.5-.4,3.5-.6,5.8-.6h14.6Z"/>
    <path class="cls-2" d="M380.6,27.4c.7,0,1.1.4,1.1,1.1v20.1h9.3c.7,0,1.3,0,1.8,0,.5,0,.9-.2,1.3-.3s.7-.4,1-.6c.3-.3.6-.6.9-1.1l5.7-8c.2-.3.4-.5.6-.7.2-.1.5-.2.9-.2h5.7c.4,0,.6.1.7.4.1.3,0,.6-.2.9l-6.5,9c-1,1.4-2.1,2.5-3.1,3.2,1.4.8,2.6,1.9,3.6,3.2l7.2,9.7c.2.3.2.5.1.8s-.4.4-.7.4h-5.7c-.4,0-.8,0-1-.2-.2-.1-.4-.3-.6-.6l-6.2-8.5c-.6-.8-1.3-1.4-2-1.7-.7-.3-1.7-.5-3.1-.5h-9.8v10.2c0,.7-.4,1.1-1.1,1.1h-5c-.8,0-1.2-.4-1.2-1.1V28.5c0-.7.4-1.1,1.2-1.1h5Z"/>
    <path class="cls-2" d="M198.6,27.4c.7,0,1.1.4,1.1,1.1v20.1h9.3c.7,0,1.3,0,1.8,0,.5,0,.9-.2,1.3-.3s.7-.4,1-.6c.3-.3.6-.6.9-1.1l5.7-8c.2-.3.4-.5.6-.7.2-.1.5-.2.9-.2h5.7c.4,0,.6.1.7.4.1.3,0,.6-.2.9l-6.5,9c-1,1.4-2.1,2.5-3.1,3.2,1.4.8,2.6,1.9,3.6,3.2l7.2,9.7c.2.3.2.5.1.8s-.4.4-.7.4h-5.7c-.4,0-.8,0-1-.2-.2-.1-.4-.3-.6-.6l-6.2-8.5c-.6-.8-1.3-1.4-2-1.7-.7-.3-1.7-.5-3.1-.5h-9.8v10.2c0,.7-.4,1.1-1.1,1.1h-5c-.8,0-1.2-.4-1.2-1.1V28.5c0-.7.4-1.1,1.2-1.1h5Z"/>
    <polygon class="cls-2" points="232.9 64.8 226.1 55.2 234 60.5 234.7 64.3 232.9 64.8"/>
    <text class="cls-1" transform="translate(119.2 89)"><tspan x="0" y="0">RISK ASSESSMENT</tspan></text>
  </g>
  <g>
    <g>
      <path class="cls-2" d="M106.4,33.2c-.4-1.5-1.9-2.7-3.3-2.7-1.6,0-2.9,1-3.3,2.6-.2.8-.4,1.7-.7,2.5-3,10.4-7.9,19.9-15,28.1-3.7,4.3-7.9,8-12.8,10.8,0,0-.2,0-.2.2,0,0,0,0,0,0,0,0,.2,0,.2,0,5.9-.9,11.2-3.2,16-6.7,4.9-3.6,8.9-8,12.2-13.1,0-.1.2-.3.4-.4,0,.1,0,.2,0,.2-1.9,6.4-4.5,12.5-8.3,18.1-1,1.4-2,2.9-3.1,4.2,0,0-.2,0-.2.1,0,0,0,0,0,0,0,.2-.2.4-.3.5-1.4,1.6-2.9,3.2-4.4,4.6-.3.3-.6.4-.9.5-3.3,1.2-6.7,1.9-10.2,2.2-8.1.7-15.6-1.3-22.6-5.3-6.7-3.8-12-9.1-16.4-15.4-.2-.3-.4-.6-.6-.9-.8-.3-1.3.1-1.8.6v.2c.1,0,.2.2.2.3,1.7,2.8,3.5,5.4,5.6,7.9,3.9,4.6,8.4,8.5,13.5,11.7,5.4,3.3,11.1,5.5,17.3,6.5.5,0,.9.2,1.3.2,0,0,0,0,0,.1-8.3,2.7-16.6,2.3-24.7-1,0,.3.2.4.3.5,2.4,2.5,5.1,4.6,8,6.3,2.4,1.4,4.9,2.5,7.6,3.1.3,0,.6.3.8.2.5-.2.9,0,1.3,0,.2,0,.4.1.7.1.9,0,1.8,0,2.7,0,2.9,0,5.8-.4,8.5-1.4,6.7-2.3,11.9-6.7,16.3-12.2,0,0,0,0,.1-.1,0,0,0,0,0,0,0,0,0,0,0,0,0,0,0,0,0,0,0,0,0,0,0,0h0c0,0,0,0,0-.1,0,0,0,0,0,0,.2-.2.4-.5.6-.8,0,0,0,0,0,0,.3-.3.5-.6.7-1,0,0,0,0,0,0,.1-.1.2-.3.3-.4,0,0,0,0,0,0,0,0,0,0,0,0,0,0,0,0,0,0,.6-.8,1.2-1.7,1.7-2.6,0,0,0,0,0,0,.1,0,.2-.2.2-.3,2-3.2,3.6-6.5,5-10,.1-.1.2-.3.2-.5.1,0,.1-.2,0-.3.1,0,.1-.2.2-.3,0,0,0-.2.1-.3,4.3-11.5,6.4-23.4,6.1-35.7,0-.2,0-.4,0-.6Z"/>
      <path class="cls-2" d="M62.6,29.8c4.9,3.1,8.5,7.3,10.5,12.7,1.8,4.9,2.1,10,1.5,15.2-.5,4.3-1.6,8.5-3,12.6-.4,1.2-.9,2.4-1.3,3.6,0,0,0,0,.1.1,0,0,0-.2.1-.3,4.4-4.4,8.6-9.1,12.4-14,3.5-4.4,6.6-9.1,9.1-14.2,1.5-3.2,2.7-6.5,2.9-10.1.2-3.4-.7-6.4-3.1-8.8-1.9-1.9-4.2-3-6.8-3.8-3.5-1.1-7.2-1.6-10.9-1.8-5.8-.3-11.7.1-17.4.8-2.5.3-5,.6-7.5,1-1.6.2-3.2.5-4.8.8,1.4.2,2.9.5,4.3.7,4.9,1,9.6,2.7,13.8,5.4Z"/>
    </g>
    <path class="cls-3" d="M88.3,77.2c0,.2-.2.4-.3.5-1.4,1.6-2.9,3.2-4.4,4.6-.3.3-.6.4-.9.5-3.3,1.2-6.7,1.9-10.2,2.2-8.1.7-15.6-1.3-22.6-5.3-6.7-3.8-12-9.1-16.4-15.4-.2-.3-.4-.6-.6-.9.5,0,.9.3,1.2.7.9,1,1.9,2,2.9,2.9.5.4.9.9,1.4,1.3,1.5,1.2,2.9,2.4,4.4,3.5,4.6,3.3,9.6,5.9,15.1,7.5,4.1,1.2,8.4,1.8,12.7,1.7,5.9,0,11.6-1.3,17.1-3.7.2,0,.3-.2.5-.1Z"/>
  </g>
</svg>